<?xml version="1.0" encoding="UTF-8"?>
<svg width="121px" height="45px" viewBox="0 0 121 45" version="1.1" xmlns="http://www.w3.org/2000/svg" xmlns:xlink="http://www.w3.org/1999/xlink">
    <!-- Generator: sketchtool 40 (33762) - http://www.bohemiancoding.com/sketch -->
    <title>D943994E-D683-401A-B8E9-F7D7BC47D788</title>
    <desc>Created with sketchtool.</desc>
    <defs>
        <polygon id="path-1" points="0.0255501761 45 120.709252 45 120.709252 0.0505714286 0.0255501761 0.0505714286"></polygon>
    </defs>
    <g id="Page-1" stroke="none" stroke-width="1" fill="none" fill-rule="evenodd">
        <g id="Form-Page" transform="translate(-21.000000, -56.000000)">
            <g id="JLT-Logo---2-Colour-RGB" transform="translate(21.000000, 56.000000)">
                <mask id="mask-2" fill="white">
                    <use xlink:href="#path-1"></use>
                </mask>
                <g id="Clip-2"></g>
                <path d="M51.8928334,45 C56.6834914,44.955 60.606721,42.132 62.2947359,38.0995714 C63.1868629,35.9682857 63.3307956,32.8135714 63.3307956,29.0532857 L63.3384606,7.33457143 C63.3384606,6.72557143 63.8345599,6.23228571 64.4477641,6.23228571 L67.3962544,6.23228571 L67.3983836,4.30371429 L53.6741065,4.30114286 L53.6736807,6.23228571 L56.6102476,6.23228571 C57.223026,6.23228571 57.7204027,6.72557143 57.7204027,7.33457143 L57.7399912,29.1861429 C57.7399912,37.2801429 57.4874703,42.1362857 55.5631162,42.3411429 C53.7528862,42.5327143 52.9365581,40.6508571 50.915965,40.6508571 C49.6729489,40.6508571 48.7595301,41.6327143 48.7637885,42.648 C48.7680469,43.9367143 49.7823889,45 51.8928334,45 L51.8928334,45 Z M112.012398,6.21685714 C116.11533,6.24642857 117.379212,6.85028571 119.092777,10.6388571 L120.709252,10.6367143 L119.07617,4.302 L90.8679236,4.302 L89.2378224,10.6367143 L90.8521677,10.6388571 C92.5674362,6.85028571 93.8300407,6.24642857 97.9351023,6.21685714 L101.106731,6.22157143 C101.713973,6.22157143 102.204111,6.71785714 102.204111,7.33028571 L102.199427,32.7484286 C102.199427,33.3604286 101.70716,33.8567143 101.100343,33.8567143 L97.8235332,33.8567143 L97.8256624,35.8722857 L112.118431,35.8881429 L112.118431,33.873 L108.838214,33.873 C108.231823,33.873 107.74126,33.3771429 107.74126,32.7655714 L107.757442,7.33028571 C107.757442,6.71785714 108.248431,6.22157143 108.855248,6.22157143 L112.012398,6.21685714 L112.012398,6.21685714 Z M71.189178,35.8662857 L71.189178,33.8048571 L74.1440559,33.8048571 C74.7619443,33.8048571 75.2640053,33.309 75.2640053,32.6944286 L75.2742254,7.32471429 C75.2742254,6.711 74.7742936,6.21385714 74.1547018,6.21385714 L71.2143024,6.21385714 L71.2143024,4.28185714 L84.9739239,4.28185714 L84.9726463,6.21385714 L82.0292661,6.21385714 C81.4109518,6.21385714 80.9093167,6.711 80.9093167,7.32471429 L80.8973933,32.6944286 C80.8973933,33.309 81.3998801,33.8048571 82.0186202,33.8048571 L89.0972964,33.8048571 C91.6437973,33.8048571 92.7475649,32.2645714 94.4134364,28.5578571 L95.9174901,28.8788571 L93.8807152,35.868 L71.189178,35.8662857 L71.189178,35.8662857 Z" id="Fill-1" fill="#111C2B" mask="url(#mask-2)"></path>
                <path d="M37.4787016,39.1311429 C37.5136202,39.1735714 37.565998,39.2018571 37.6260409,39.2018571 C37.6899164,39.2018571 37.7461268,39.1692857 37.7810453,39.123 L37.7959496,39.1032857 C37.9339206,38.9344286 38.1289536,38.6952857 38.2728862,38.5165714 C38.5590482,38.1574286 38.8792771,37.7194286 38.8792771,37.7194286 C34.3134606,30.0385714 26.5044751,24.8828571 15.8296116,24.8601429 C14.0828312,24.855 11.7926838,25.1305714 10.0301474,25.5934286 L0.0519520246,35.6185714 L0.0464161532,35.6267143 C0.0183109595,35.6545714 0,35.6944286 0,35.7368571 C0,35.823 0.0711146567,35.8941429 0.158836928,35.8941429 C0.192052157,35.8941429 0.222286532,35.8842857 0.247836708,35.8675714 L0.815050616,35.4972857 C5.40002971,32.2757143 10.9950924,30.3835714 17.0343024,30.3835714 C25.0157515,30.3835714 32.2221787,33.6887143 37.3454148,39.0004286 L37.4787016,39.1311429 L37.4787016,39.1311429 Z M36.2616615,0.181285714 C36.1781976,0.100714286 36.0644993,0.0505714286 35.9393035,0.0505714286 C35.8107009,0.0505714286 35.6940218,0.102428571 35.6114096,0.186857143 L35.5913952,0.203571429 L23.799989,11.892 C33.9455381,13.0302857 41.4002278,20.5877143 42.7233011,30.5378571 L42.7394828,30.492 C48.6632912,13.7742857 38.312489,2.24742857 36.2744366,0.191571429 L36.2616615,0.181285714 L36.2616615,0.181285714 Z M20.1624956,15.5284286 C31.1720665,15.6008571 39.8902124,23.6601429 41.1515394,34.0877143 C41.1515394,34.0877143 40.780636,34.767 40.660976,34.9752857 C40.5417419,35.184 40.0950396,35.8967143 40.0950396,35.8967143 C37.0894872,27.2194286 28.5374175,20.4998571 18.3326772,20.4998571 C17.316206,20.4998571 15.9509749,20.5705714 14.9672931,20.6978571 L20.1624956,15.5284286 L20.1624956,15.5284286 Z" id="Fill-3" fill="#AD243E" mask="url(#mask-2)"></path>
            </g>
        </g>
    </g>
</svg>